<svg width="24" height="24" viewBox="0 0 24 24" fill="none" xmlns="http://www.w3.org/2000/svg">
<g id="add_task">
<mask id="mask0_131_306" style="mask-type:alpha" maskUnits="userSpaceOnUse" x="0" y="0" width="24" height="24">
<rect id="Bounding box" width="24" height="24" fill="#D9D9D9"/>
</mask>
<g mask="url(#mask0_131_306)">
<path id="add_task_2" d="M12 22C10.6167 22 9.31667 21.7375 8.1 21.2125C6.88333 20.6875 5.825 19.975 4.925 19.075C4.025 18.175 3.3125 17.1167 2.7875 15.9C2.2625 14.6833 2 13.3833 2 12C2 10.6167 2.2625 9.31667 2.7875 8.1C3.3125 6.88333 4.025 5.825 4.925 4.925C5.825 4.025 6.88333 3.3125 8.1 2.7875C9.31667 2.2625 10.6167 2 12 2C13.0833 2 14.1083 2.15833 15.075 2.475C16.0417 2.79167 16.9333 3.23333 17.75 3.8L16.3 5.275C15.6667 4.875 14.9917 4.5625 14.275 4.3375C13.5583 4.1125 12.8 4 12 4C9.78333 4 7.89583 4.77917 6.3375 6.3375C4.77917 7.89583 4 9.78333 4 12C4 14.2167 4.77917 16.1042 6.3375 17.6625C7.89583 19.2208 9.78333 20 12 20C12.5333 20 13.05 19.95 13.55 19.85C14.05 19.75 14.5333 19.6083 15 19.425L16.5 20.95C15.8167 21.2833 15.1 21.5417 14.35 21.725C13.6 21.9083 12.8167 22 12 22ZM19 20V17H16V15H19V12H21V15H24V17H21V20H19ZM10.6 16.6L6.35 12.35L7.75 10.95L10.6 13.8L20.6 3.775L22 5.175L10.6 16.6Z" fill="white"/>
</g>
</g>
</svg>
