<svg width="16" height="16" viewBox="0 0 16 16" fill="none" xmlns="http://www.w3.org/2000/svg">
<g id="add_link">
<mask id="mask0_108_257" style="mask-type:alpha" maskUnits="userSpaceOnUse" x="0" y="0" width="16" height="16">
<rect id="Bounding box" width="16" height="16" fill="#D9D9D9"/>
</mask>
<g mask="url(#mask0_108_257)">
<path id="add_link_2" d="M11.3333 13.3333V11.3333H9.33331V9.99996H11.3333V7.99996H12.6666V9.99996H14.6666V11.3333H12.6666V13.3333H11.3333ZM7.33331 11.3333H4.66665C3.74442 11.3333 2.95831 11.0083 2.30831 10.3583C1.65831 9.70829 1.33331 8.92218 1.33331 7.99996C1.33331 7.07774 1.65831 6.29163 2.30831 5.64163C2.95831 4.99163 3.74442 4.66663 4.66665 4.66663H7.33331V5.99996H4.66665C4.11109 5.99996 3.63887 6.1944 3.24998 6.58329C2.86109 6.97218 2.66665 7.4444 2.66665 7.99996C2.66665 8.55552 2.86109 9.02774 3.24998 9.41663C3.63887 9.80551 4.11109 9.99996 4.66665 9.99996H7.33331V11.3333ZM5.33331 8.66663V7.33329H10.6666V8.66663H5.33331ZM14.6666 7.99996H13.3333C13.3333 7.4444 13.1389 6.97218 12.75 6.58329C12.3611 6.1944 11.8889 5.99996 11.3333 5.99996H8.66665V4.66663H11.3333C12.2555 4.66663 13.0416 4.99163 13.6916 5.64163C14.3416 6.29163 14.6666 7.07774 14.6666 7.99996Z" fill="#3818FD"/>
</g>
</g>
</svg>
