<svg width="33" height="32" viewBox="0 0 33 32" fill="none" xmlns="http://www.w3.org/2000/svg">
<g id="delete">
<mask id="mask0_63_258" style="mask-type:alpha" maskUnits="userSpaceOnUse" x="0" y="0" width="33" height="32">
<rect id="Bounding box" x="0.5" width="32" height="32" fill="#D9D9D9"/>
</mask>
<g mask="url(#mask0_63_258)">
<path id="delete_2" d="M10.6537 26.6667C10.0571 26.6667 9.54897 26.4568 9.1293 26.0372C8.70966 25.6175 8.49984 25.1094 8.49984 24.5128V8H7.1665V6.66667H12.4998V5.641H20.4998V6.66667H25.8332V8H24.4998V24.5128C24.4998 25.1265 24.2943 25.6389 23.8832 26.05C23.4721 26.4611 22.9597 26.6667 22.346 26.6667H10.6537ZM23.1665 8H9.83317V24.5128C9.83317 24.7521 9.91009 24.9487 10.0639 25.1026C10.2178 25.2564 10.4144 25.3333 10.6537 25.3333H22.346C22.5511 25.3333 22.7391 25.2479 22.9101 25.0769C23.081 24.906 23.1665 24.7179 23.1665 24.5128V8ZM13.5767 22.6667H14.9101V10.6667H13.5767V22.6667ZM18.0896 22.6667H19.4229V10.6667H18.0896V22.6667Z" fill="#1C1B1F"/>
</g>
</g>
</svg>
