<svg width="16" height="16" viewBox="0 0 16 16" fill="none" xmlns="http://www.w3.org/2000/svg">
<g id="help">
<mask id="mask0_108_112" style="mask-type:alpha" maskUnits="userSpaceOnUse" x="0" y="0" width="16" height="16">
<rect id="Bounding box" width="16" height="16" fill="#4A4A4A"/>
</mask>
<g mask="url(#mask0_108_112)">
<path id="help_2" d="M7.96671 12C8.20004 12 8.39726 11.9195 8.55837 11.7584C8.71949 11.5973 8.80004 11.4 8.80004 11.1667C8.80004 10.9334 8.71949 10.7362 8.55837 10.575C8.39726 10.4139 8.20004 10.3334 7.96671 10.3334C7.73337 10.3334 7.53615 10.4139 7.37504 10.575C7.21393 10.7362 7.13337 10.9334 7.13337 11.1667C7.13337 11.4 7.21393 11.5973 7.37504 11.7584C7.53615 11.9195 7.73337 12 7.96671 12ZM7.36671 9.43337H8.60004C8.60004 9.06671 8.64171 8.77782 8.72504 8.56671C8.80837 8.3556 9.04449 8.06671 9.43337 7.70004C9.72226 7.41115 9.95004 7.13615 10.1167 6.87504C10.2834 6.61393 10.3667 6.30004 10.3667 5.93337C10.3667 5.31115 10.1389 4.83337 9.68337 4.50004C9.22782 4.16671 8.68893 4.00004 8.06671 4.00004C7.43337 4.00004 6.91948 4.16671 6.52504 4.50004C6.1306 4.83337 5.8556 5.23337 5.70004 5.70004L6.80004 6.13337C6.8556 5.93337 6.9806 5.71671 7.17504 5.48337C7.36948 5.25004 7.66671 5.13337 8.06671 5.13337C8.42226 5.13337 8.68893 5.2306 8.86671 5.42504C9.04448 5.61948 9.13337 5.83337 9.13337 6.06671C9.13337 6.28893 9.06671 6.49726 8.93337 6.69171C8.80004 6.88615 8.63337 7.06671 8.43337 7.23337C7.94449 7.66671 7.64448 7.99448 7.53337 8.21671C7.42226 8.43893 7.36671 8.84449 7.36671 9.43337ZM8.00004 14.6667C7.07782 14.6667 6.21115 14.4917 5.40004 14.1417C4.58893 13.7917 3.88337 13.3167 3.28337 12.7167C2.68337 12.1167 2.20837 11.4112 1.85837 10.6C1.50837 9.78893 1.33337 8.92226 1.33337 8.00004C1.33337 7.07782 1.50837 6.21115 1.85837 5.40004C2.20837 4.58893 2.68337 3.88337 3.28337 3.28337C3.88337 2.68337 4.58893 2.20837 5.40004 1.85837C6.21115 1.50837 7.07782 1.33337 8.00004 1.33337C8.92226 1.33337 9.78893 1.50837 10.6 1.85837C11.4112 2.20837 12.1167 2.68337 12.7167 3.28337C13.3167 3.88337 13.7917 4.58893 14.1417 5.40004C14.4917 6.21115 14.6667 7.07782 14.6667 8.00004C14.6667 8.92226 14.4917 9.78893 14.1417 10.6C13.7917 11.4112 13.3167 12.1167 12.7167 12.7167C12.1167 13.3167 11.4112 13.7917 10.6 14.1417C9.78893 14.4917 8.92226 14.6667 8.00004 14.6667Z" fill="#4A4A4A"/>
</g>
</g>
</svg>
