<svg width="16" height="16" viewBox="0 0 16 16" fill="none" xmlns="http://www.w3.org/2000/svg">
<g id="border_color">
<mask id="mask0_108_247" style="mask-type:alpha" maskUnits="userSpaceOnUse" x="0" y="0" width="16" height="16">
<rect id="Bounding box" width="16" height="16" fill="#D9D9D9"/>
</mask>
<g mask="url(#mask0_108_247)">
<path id="border_color_2" d="M1.33331 16V13.3333H14.6666V16H1.33331ZM2.66665 12V9.49998L8.69998 3.46664L11.2 5.96664L5.16665 12H2.66665ZM3.99998 10.6666H4.59998L9.33331 5.96664L8.69998 5.33331L3.99998 10.0666V10.6666ZM11.95 5.23331L9.44998 2.73331L10.65 1.53331C10.7722 1.39998 10.9278 1.33609 11.1166 1.34164C11.3055 1.3472 11.4611 1.41109 11.5833 1.53331L13.15 3.09998C13.2722 3.2222 13.3333 3.37498 13.3333 3.55831C13.3333 3.74164 13.2722 3.89998 13.15 4.03331L11.95 5.23331Z" fill="#3818FD"/>
</g>
</g>
</svg>
